<svg data-name="Layer 1" xmlns="http://www.w3.org/2000/svg" xmlns:xlink="http://www.w3.org/1999/xlink" viewBox="0 0 300 177"><defs><linearGradient id="a" x1="109.37" y1="42.55" x2="192.1" y2="42.55" gradientUnits="userSpaceOnUse"><stop offset=".15" stop-color="#ba816e"/><stop offset=".31" stop-color="#cb957d"/><stop offset=".5" stop-color="#f8c7ac"/><stop offset=".7" stop-color="#e2ac92"/><stop offset=".86" stop-color="#efa78e"/></linearGradient><linearGradient id="b" x1="71.71" y1="41.65" x2="147.06" y2="41.65" xlink:href="#a"/><linearGradient id="c" x1="153.14" y1="43.68" x2="228.29" y2="43.68" xlink:href="#a"/><linearGradient id="d" y1="123.83" x2="32.82" y2="123.83" xlink:href="#a"/><linearGradient id="e" x1="46.56" y1="123.78" x2="88.3" y2="123.78" xlink:href="#a"/><linearGradient id="f" x1="101.66" y1="123.78" x2="133.78" y2="123.78" xlink:href="#a"/><linearGradient id="g" x1="149.78" y1="123.78" x2="156.87" y2="123.78" xlink:href="#a"/><linearGradient id="h" x1="172.28" y1="123.78" x2="203.42" y2="123.78" xlink:href="#a"/><linearGradient id="i" x1="218.67" y1="124.21" x2="251.87" y2="124.21" xlink:href="#a"/><linearGradient id="j" x1="267.61" y1="123.62" x2="300" y2="123.62" xlink:href="#a"/><linearGradient id="k" x1="62.19" y1="168.16" x2="78.52" y2="168.16" xlink:href="#a"/><linearGradient id="l" x1="121.83" y1="168.16" x2="135.94" y2="168.16" xlink:href="#a"/><linearGradient id="m" x1="150.54" y1="168.16" x2="153.16" y2="168.16" xlink:href="#a"/><linearGradient id="n" x1="167.28" y1="168.17" x2="181.98" y2="168.17" xlink:href="#a"/><linearGradient id="o" x1="194.06" y1="168.16" x2="212.53" y2="168.16" xlink:href="#a"/><linearGradient id="p" x1="90.06" y1="168.16" x2="108.52" y2="168.16" xlink:href="#a"/><linearGradient id="q" x1="225.78" y1="168.16" x2="237.81" y2="168.16" xlink:href="#a"/></defs><g data-name="&lt;Group&gt;"><g data-name="&lt;Group&gt;"><path data-name="&lt;Path&gt;" d="M147.12 69.9l36.73-37-9.17-9.09L157 41.57l-.45.45-5.75-6.43L162.36 24l4.51-4.55c.51-.41 1-.8 1.57-1.18 1.27-1.47 2.61-2.92 4-4.32A62.59 62.59 0 0 1 192.1.37a43.12 43.12 0 0 0-6.47-.49A42.61 42.61 0 0 0 158 10a42.86 42.86 0 0 0-5.11 5.15l-36.74 37.09 9.17 9.09 16.41-16.55 5.75 6.42-9.84 9.92-4.07 4.11a73 73 0 0 1-6 6.78 64.35 64.35 0 0 1-18.17 12.91 43.45 43.45 0 0 0 5 .29 42.71 42.71 0 0 0 32.72-15.31z" fill="url(#a)"/><path data-name="&lt;Path&gt;" d="M114.37 72.33a29.78 29.78 0 1 1 23.56-48l9.13-9.21a42.67 42.67 0 1 0-44.93 68.3c6.5-1.69 14-6.14 20.79-12.36a29.77 29.77 0 0 1-8.55 1.27z" fill="url(#b)"/><path data-name="&lt;Path&gt;" d="M199.39 2.15c-6.42 1.26-14 5.44-21 11.51A29.78 29.78 0 1 1 162.27 61l-9.13 9.2a42.67 42.67 0 1 0 46.25-68z" fill="url(#c)"/></g><g data-name="&lt;Group&gt;"><g data-name="&lt;Group&gt;"><path data-name="&lt;Compound Path&gt;" d="M25.74 142.76v-15.3H7.14v15.3H0v-37.85h7.14v16h18.6v-16h7.08v37.85z" fill="url(#d)"/><path data-name="&lt;Compound Path&gt;" d="M67.43 112.8l-13.14 29.9h-7.73l17-37.84h7.78l17 37.84h-7.83z" fill="url(#e)"/><path data-name="&lt;Compound Path&gt;" d="M101.66 104.86h18c7.46 0 13 3.35 13 11a7.69 7.69 0 0 1-4.92 7.3c4.43 1.35 6.06 6.06 6.06 8.44 0 8.43-6.33 11.13-14.17 11.13h-18v-22.5l18-.18c4.49 0 6-1.89 6-4.06 0-1.73-1.41-4.65-6-4.65l-18 .28v-6.76m7 31.19h10.92c2.92 0 7.08-1 7.08-4.54 0-3.4-4.16-5.19-7.08-5.19h-10.86z" fill="url(#f)"/><path data-name="&lt;Compound Path&gt;" d="M149.78 142.7v-37.84h7.09v37.84z" fill="url(#g)"/><path data-name="&lt;Compound Path&gt;" d="M184.28 111.34h-12v-6.48h31.14v6.48h-12v31.36h-7.14z" fill="url(#h)"/><path data-name="&lt;Compound Path&gt;" d="M251.87 104.91v21.68c0 11.19-6.86 16.93-16.38 16.93-9.08 0-16.82-5.52-16.82-16.93v-21.68h7.09v21.68c0 6.81 3.89 10.44 9.78 10.44s9.25-3.95 9.25-10.44v-21.68z" fill="url(#i)"/><path data-name="&lt;Compound Path&gt;" d="M293.13 114c-1.29-2.16-4.86-4.21-9-4.21-5.3 0-7.84 2.21-7.84 5 0 3.29 3.89 4.21 8.43 4.75 7.9 1 15.25 3 15.25 12.06 0 8.44-7.46 12.06-15.9 12.06-7.73 0-13.68-2.38-16.49-9.3l5.95-3.08c1.68 4.16 6.06 6 10.65 6s8.71-1.57 8.71-5.68c0-3.57-3.73-5-8.76-5.57-7.73-.92-14.87-3-14.87-11.46 0-7.79 7.68-11 14.65-11 5.9 0 12 1.67 14.87 7.51z" fill="url(#j)"/></g><g data-name="&lt;Group&gt;"><path data-name="&lt;Path&gt;" d="M71.45 161.46a6.6 6.6 0 0 1 4.71 1.92l.44.44 1.92-1.65-.52-.52a9.2 9.2 0 0 0-6.55-2.7 9.1 9.1 0 0 0-6.68 2.58 9.29 9.29 0 0 0-2.58 6.73c0 4.53 2.9 9.11 9.26 9.11a9.2 9.2 0 0 0 6.55-2.7l.5-.5-1.85-1.74-.47.46a6.81 6.81 0 0 1-4.73 1.93c-4.86 0-6.62-3.57-6.66-6.62a6.84 6.84 0 0 1 1.84-4.94 6.6 6.6 0 0 1 4.82-1.8z" fill="url(#k)"/><path data-name="&lt;Compound Path&gt;" d="M129.83 159.14h-8v18h2.65v-5.77h5.35a5.94 5.94 0 0 0 4.58-1.93 6.36 6.36 0 0 0 1.53-4.2 5.93 5.93 0 0 0-6.11-6.1zm0 9.74h-5.35v-7.19h5.35a3.6 3.6 0 0 1 0 7.19z" fill="url(#l)"/><path data-name="&lt;Path&gt;" fill="url(#m)" d="M150.54 159.14h2.62v18.03h-2.62z"/><path data-name="&lt;Path&gt;" fill="url(#n)" d="M167.28 161.67h6.03v15.51h2.64v-15.51h6.03v-2.5h-14.7v2.5z"/><path data-name="&lt;Compound Path&gt;" d="M209.65 177.18h2.88l-8.09-18h-2.29l-8.09 18h2.88l6.34-14.43z" fill="url(#o)"/><path data-name="&lt;Compound Path&gt;" d="M105.65 177.18h2.87l-8.08-18h-2.29l-8.09 18h2.87l6.35-14.43z" fill="url(#p)"/><path data-name="&lt;Path&gt;" fill="url(#q)" d="M228.43 174.6v-15.46h-2.65v18.04h12.03v-2.58h-9.38z"/></g></g></g></svg>