<svg xmlns="http://www.w3.org/2000/svg" viewBox="0 0 180.92 180.89"><title>Linkedin</title><g id="Layer_2" data-name="Layer 2"><g id="Layer_1-2" data-name="Layer 1"><g id="XKOn8n.tif"><path d="M0,148.88v-117a5.54,5.54,0,0,0,.11-.56c.21-1.51.33-3,.65-4.53A33.38,33.38,0,0,1,12.65,7.51,33.05,33.05,0,0,1,29.19.34L31.91,0h117c.2,0,.41.09.61.11a30.62,30.62,0,0,1,12.25,3.3c12.39,6.48,19,16.76,19.09,30.75.15,37.51.06,75,0,112.54a35.33,35.33,0,0,1-.36,5.14,32.8,32.8,0,0,1-8.16,17.56,33.14,33.14,0,0,1-25.6,11.47q-56.35,0-112.71,0A33.88,33.88,0,0,1,9,169.9a33.07,33.07,0,0,1-8.5-17.46C.26,151.26.15,150.07,0,148.88Zm97.68,4.63v-.79q0-23.82,0-47.64a16.18,16.18,0,0,1,2.09-8.33c2.6-4.47,6.3-7.2,11.58-7.48a13.76,13.76,0,0,1,6.55,1.1,10.94,10.94,0,0,1,5.71,6.9A30.25,30.25,0,0,1,125,107q0,22.91,0,45.8v.7h28.33V105.58A64,64,0,0,0,152.56,95a38.36,38.36,0,0,0-4.4-13,26.68,26.68,0,0,0-12.79-11.63,34.16,34.16,0,0,0-18.47-2.29,24.69,24.69,0,0,0-17.13,10.2c-.68.93-1.34,1.88-2,2.81l-.18,0V69.46H69.14v84.05Zm-41.86,0V69.46H27.66v.61c0,3.91,0,7.81,0,11.71q0,12.19.06,24.39,0,23.33.06,46.65c0,.58.13.74.73.74q13.34,0,26.68,0ZM42.08,58.39c.55-.06,1.6-.13,2.63-.32a14.19,14.19,0,0,0,8.49-4.61,13.59,13.59,0,0,0,3-12.36,13.1,13.1,0,0,0-8.34-9.9,18.15,18.15,0,0,0-10.59-.78A13.66,13.66,0,0,0,25.92,44,13.37,13.37,0,0,0,32.19,56C35,57.84,38.23,58.45,42.08,58.39Z"/></g></g></g></svg>