<svg xmlns="http://www.w3.org/2000/svg" viewBox="0 0 827.83 1036.87"><defs><style>.cls-1{fill:#fff;}</style></defs><title>lock</title><g id="Layer_2" data-name="Layer 2"><g id="Layer_1-2" data-name="Layer 1"><path class="cls-1" d="M382.83,1c-109.6,8.8-192.4,62.6-237.5,154.4-8,16.2-15.5,34.7-15.5,38,0,.8-.4,1.5-.8,1.5s-.8.8-.9,1.7a19.41,19.41,0,0,1-1.6,6.3c-1.7,4.7-7.8,28.7-9.1,36-.3,1.9-.8,4.6-1.1,5.9s-.7,4.7-1,7.4a28.33,28.33,0,0,1-1,5.6c-.8,1.3-2.4,18.9-2.8,31.3-.1,2.7-.5,4.8-1,4.8s-.3.9.3,2c.8,1.4.8,2,0,2s-.8.6-.1,1.9c.6,1,.8,2.1.5,2.4s-.5,39.2-.4,86.5l.1,86-2.6,2c-1.4,1.1-6.9,3-12.3,4.3-15.9,3.6-26.6,7.4-36.4,12.8-10.9,6-14.9,9.1-24,18.3-20.6,20.8-33.4,56-35.3,96.8-.5,9.9-.4,302.2.1,312.5.8,17.5,2.8,31.9,4.6,34.3.7.8.7,1.2-.1,1.2s-.9.5-.4,1.3a6.83,6.83,0,0,1,.9,2.2,57.83,57.83,0,0,0,2.3,6.2c1.1,2.9,1.7,5.3,1.3,5.3s-.2.4.3.8c1,.7,3.7,6.1,3.7,7.2a6,6,0,0,0,1.4,2.1c.8.9,1.2,1.8.9,2.1s.6,1.7,2,3.2a18.28,18.28,0,0,1,2.5,3.1c0,1.4,8.4,11.7,12.2,15,2.4,2.1,3.4,3.2,2.3,2.4-1.8-1.3-1.9-1.3-.6.3.7,1,1.7,1.8,2.2,1.8a6.65,6.65,0,0,1,2.7,1.7,48.51,48.51,0,0,0,12.1,8.6c17.5,9.4,26.7,12.1,52.1,15.3,11.1,1.3,46.1,1.5,312.1,1.4,310.6,0,312.3,0,331.4-3.9,22.1-4.5,39.7-13.4,53.1-27,16.1-16.2,23.8-34.2,26.9-62.6,1.2-10.7,1.5-40.7,1.5-169.6,0-86.2-.2-157.3-.4-158s-.7-6.3-1-12.2-.8-11.2-1-11.6a21.6,21.6,0,0,1-1-5.1c-1.7-14.3-7.6-34.2-13.7-46.3-3-5.7-10.7-17.6-13.8-21.1-6.2-6.9-15.9-16-17.4-16.4-1.3-.3-3.7-3-3.8-4.4,0-.7-.4-.4-.8.7-.8,1.9-.8,1.9-1.5-.3-.5-1.4-1.3-2.1-2.1-1.8a2.4,2.4,0,0,1-2.5-1,4.22,4.22,0,0,0-2.6-1.4c-.8,0-1.4-.5-1.4-1s-.7-1-1.5-1-1.5-.5-1.5-1-.9-1-2-1-2-.5-2-1.1-.4-.7-1-.4-1,.1-1-.5-.4-.8-1-.5-1,.2-1-.4-.8-.8-1.7-.6a10.86,10.86,0,0,1-4.5-1.1,11.87,11.87,0,0,0-3.5-1.3,6.64,6.64,0,0,1-2.5-.4c-4.6-1.8-5.4-2-6.9-2.3a36.24,36.24,0,0,1-4-1.3,8.29,8.29,0,0,0-3-.7,8.72,8.72,0,0,1-3-1.9c-1.4-1.3-2-1.4-1.5-.5s-.4.2-1.8-1.3l-2.6-2.8v-84.7c-.1-46.6-.3-88.3-.5-92.7-.7-11.7-1.4-20.6-1.9-24-.3-2.4-2.6-16.9-4-25.5-2.1-12.5-3-17-3.6-17-.4,0-.6-1-.5-2.3a5.81,5.81,0,0,0-.5-3.2,9.8,9.8,0,0,1-1.3-4,50,50,0,0,0-2.5-9.6,5.8,5.8,0,0,1-.6-3.2c.3-.3-.2-2.2-1-4.2a19.44,19.44,0,0,1-1.6-5.9c0-1.6-.2-1.8-.9-.7s-1.1.1-1.6-3.2c-.4-2.6-1.2-4.7-1.7-4.7s-.8-.9-.5-2,.1-2-.4-2-.9-.7-.9-1.5-.4-1.5-1-1.5-.6-.7-.3-1.7c.5-1.1.3-1.4-.6-.8s-1.1.2-.6-1.5.4-2.1-.5-1.5-1.1.4-.6-.3c.7-1.1-2.8-9.3-9.6-22.7-2.2-4.4-5.5-10.7-7.1-14a43.28,43.28,0,0,0-3.8-6.5,46.94,46.94,0,0,1-2.9-4.9,46,46,0,0,0-3.1-5.5,150.61,150.61,0,0,1-10.5-14.9c-1.3-2.3-2.4-3.8-2.4-3.4s-.6.2-1.4-.5-1.2-1.6-.9-2-.7-1.9-2.1-3.3-2.6-3.1-2.6-3.7-.3-.8-.7-.5-1.3-.2-2-1.3-1.9-1.8-2.4-1.5-.9-.2-.9-1.2-2-3.9-4.5-6.3-4.2-4.7-3.9-5.2-.4-.8-1.5-.8a3,3,0,0,1-2.6-2,2.65,2.65,0,0,0-2.1-2,1.45,1.45,0,0,1-1.4-1.5,1.56,1.56,0,0,0-1.6-1.5c-.8,0-1.2-.5-.9-1s-.1-1-.9-1-1.6-.5-1.6-1.1-.3-.8-.7-.6-1.4-.1-2.1-.9-.9-1.4-.5-1.4-.4-.8-1.9-1.6-2.8-1.9-2.8-2.4-.7-1-1.5-1-1.5-.5-1.5-1a1,1,0,0,0-1-1c-.6,0-2.1-1.1-3.4-2.5s-2.6-2.5-3-2.5c-.7,0-6.7-4.1-7.6-5.1a22.77,22.77,0,0,0-3.7-2.2,29.53,29.53,0,0,1-4.5-2.9c-1.8-1.7-5.9-4.2-14.3-8.5-3.8-1.9-7.3-4-7.6-4.5a1.91,1.91,0,0,0-1.2-.9,29.11,29.11,0,0,1-4.9-1.8c-37.4-15.8-66.5-22.9-107.2-26.1C433.43-.35,398-.25,382.83,1Zm47.5,121.4c10.3,1,14,1.5,24,3.1,9,1.5,28.3,6.7,31.4,8.5,1.7.9,7.4,3.1,7.9,3,1-.4,27.3,14.8,29.2,17,.3.3,2.3,1.8,4.4,3.5a64.07,64.07,0,0,1,6,4.9c1.2,1.1,3.5,3.1,5.1,4.3s2.3,2.1,1.5,1.7-.1.6,1.6,2.2c2.7,2.4,9.8,10.7,15.7,18.4a68,68,0,0,1,3.8,5.9c1.1,1.9,2.8,4.8,3.9,6.5,1.9,3,7.3,12.6,7.5,13.5.1.3,1,2.3,2,4.5s1.8,4.3,1.7,4.7a.61.61,0,0,0,.6.8c.5,0,.9.6,1,1.2.2,2.9,2.9,8.8,3.7,8.1.4-.5.5-.3.1.4s.7,5,2.3,9.7,2.7,8.7,2.4,9,0,1.2.7,2.1,1,1.8.7,2.2-.2,1.2.4,2c.9,1,.8,1.3-.2,1.3s-.8.5.5,1.5c1.1.8,1.5,1.5.8,1.5s-.9.7-.1,2.7a33.93,33.93,0,0,1,1.4,4.8c.8,4.9,2.7,20.3,2.9,23,0,1.6.5,3.3,1.1,3.7s.6.8,0,.8-1.1.9-1.1,2,.4,2,.9,2,.4.6-.2,1.4c-.9,1.1-.9,1.5.1,2s1,.7.1,1.2c-1.9.8-1.6,2.4.5,2.4,1,0,1.3.3.6.8-1.6,1-1.8,22.2-.3,22.2.8,0,.9.4,0,1.3s-1.2,21.5-1.3,70.7l-.3,69.4-3.4,2c-3.4,2-5.6,2-171.7,2.4-121.6.3-168.3.1-168.8-.7-.4-.6-2.2-1.1-4-1.1-6.9,0-6.5,5.9-6.6-90.5-.1-47.9-.1-87.2,0-87.5s.3-3.2.5-6.5a174.51,174.51,0,0,1,2.6-21c.6-3.3,1.2-7.1,1.3-8.5a18.92,18.92,0,0,1,1-4.1,18.92,18.92,0,0,0,1-4.1,9.85,9.85,0,0,1,.8-3.3,27.64,27.64,0,0,0,1.3-5c.8-4.2,4.7-15.9,7.1-21.2a15.49,15.49,0,0,0,1.4-3.9c0-3.3,18.8-35.6,24.7-42.4,3.6-4.2,19.7-20,23.9-23.5,11-9.3,39.8-24,50.7-25.9a33.13,33.13,0,0,0,4.7-1.4c5.8-1.9,27.3-5.2,38.2-5.8,5.7-.4,10.4-.7,10.5-.8C408.93,121.15,424.13,121.75,430.33,122.35Z"/></g></g></svg>