<svg xmlns="http://www.w3.org/2000/svg" viewBox="0 0 222 181.06"><title>Twitter</title><g id="Layer_2" data-name="Layer 2"><g id="Layer_1-2" data-name="Layer 1"><g id="RHHmzo.tif"><path d="M.21,160.71c24.48,2.25,46.58-3.81,66.54-18.9C45.86,140,31.9,129.57,24.15,110a50.19,50.19,0,0,0,20.08-.76C21.63,102.33,9.64,87.51,8.34,64.11c6.38,2.81,12.8,5,20.37,5.11C18.82,62,12.42,53,9.84,41.49a45.6,45.6,0,0,1,4.94-33c24.73,29,55.93,45.07,94.13,47.7-.3-2.91-.68-5.53-.81-8.17-.67-14.18,4.2-26.23,14.59-35.84,11.43-10.56,25.08-14,40.23-11.2a42.33,42.33,0,0,1,22.7,12.16,2.91,2.91,0,0,0,3.13.91,90.47,90.47,0,0,0,24.38-9.17c.67-.38,1.37-.7,2.07-1a2.4,2.4,0,0,1,.61,0c-3.45,10.34-9.88,18.2-18.73,24.32,8.6-.65,16.64-3.23,24.92-6.59A87.2,87.2,0,0,1,208,38c-2.23,2-4.57,3.95-7,5.78a3.7,3.7,0,0,0-1.62,3.45,123.44,123.44,0,0,1-4.71,38.53,136.3,136.3,0,0,1-12.88,30.77A131.62,131.62,0,0,1,160,145.09a121.23,121.23,0,0,1-40.26,26.55A130.23,130.23,0,0,1,75,181a131.81,131.81,0,0,1-32.21-2.59A121.76,121.76,0,0,1,12,167.62c-4-2.1-8-4.29-12-6.44Z"/></g></g></g></svg>