<svg xmlns="http://www.w3.org/2000/svg" viewBox="0 0 259.62 180.59"><defs><style>.cls-1{fill:#fff;}</style></defs><title>Youtube</title><g id="Layer_2" data-name="Layer 2"><g id="Layer_1-2" data-name="Layer 1"><path class="cls-1" d="M139.77,180.59c-32.12-1.37-64.61-2.28-97-4.31-25.85-1.61-35.62-10.3-39.13-36-4.84-35.47-5.09-71.15.94-106.58,3.32-19.44,13.67-29.33,34-30.32C76.71,1.5,115,.28,153.18,0c22.68-.16,45.39,1.67,68,3.24C240.9,4.62,252,14.39,255.12,33.81a345.9,345.9,0,0,1-.07,111.64c-3.2,19.4-14.2,29.17-33.91,30.57C194.19,177.92,167.19,179.09,139.77,180.59ZM104.1,50.83v77.55l67.6-38.84Z"/></g></g></svg>